<svg width="512" height="512" viewBox="0 0 512 512" xmlns="http://www.w3.org/2000/svg">
  <defs>
    <linearGradient id="bg512" x1="0%" y1="0%" x2="100%" y2="100%">
      <stop offset="0%" style="stop-color:#7dd3fc"/>
      <stop offset="50%" style="stop-color:#a78bfa"/>
      <stop offset="100%" style="stop-color:#fb7185"/>
    </linearGradient>
  </defs>
  
  <!-- Background -->
  <rect width="512" height="512" rx="64" fill="url(#bg512)"/>
  
  <!-- Clock face -->
  <circle cx="256" cy="256" r="170" fill="white" stroke="#4a5568" stroke-width="12"/>
  
  <!-- Hour markers -->
  <line x1="256" y1="100" x2="256" y2="120" stroke="#4a5568" stroke-width="8"/>
  <line x1="412" y1="256" x2="392" y2="256" stroke="#4a5568" stroke-width="8"/>
  <line x1="256" y1="412" x2="256" y2="392" stroke="#4a5568" stroke-width="8"/>
  <line x1="100" y1="256" x2="120" y2="256" stroke="#4a5568" stroke-width="8"/>
  
  <!-- Clock hands -->
  <line x1="256" y1="256" x2="256" y2="160" stroke="#4a5568" stroke-width="16" stroke-linecap="round"/>
  <line x1="256" y1="256" x2="336" y2="256" stroke="#4a5568" stroke-width="12" stroke-linecap="round"/>
  
  <!-- Center dot -->
  <circle cx="256" cy="256" r="12" fill="#4a5568"/>
  
  <!-- Plus sign (overtime indicator) -->
  <line x1="370" y1="370" x2="450" y2="370" stroke="#10b981" stroke-width="20" stroke-linecap="round"/>
  <line x1="410" y1="330" x2="410" y2="410" stroke="#10b981" stroke-width="20" stroke-linecap="round"/>
  
  <!-- Calendar grid indicator -->
  <g transform="translate(80, 360)">
    <rect x="0" y="0" width="16" height="16" fill="white" opacity="0.9" rx="2"/>
    <rect x="24" y="0" width="16" height="16" fill="white" opacity="0.9" rx="2"/>
    <rect x="48" y="0" width="16" height="16" fill="white" opacity="0.9" rx="2"/>
    <rect x="72" y="0" width="16" height="16" fill="white" opacity="0.9" rx="2"/>
    <rect x="0" y="24" width="16" height="16" fill="white" opacity="0.9" rx="2"/>
    <rect x="24" y="24" width="16" height="16" fill="white" opacity="0.9" rx="2"/>
    <rect x="48" y="24" width="16" height="16" fill="white" opacity="0.9" rx="2"/>
    <rect x="72" y="24" width="16" height="16" fill="white" opacity="0.9" rx="2"/>
  </g>
</svg>